<svg width="268" height="198" viewBox="0 0 268 198" fill="none" xmlns="http://www.w3.org/2000/svg">
<path d="M268 99.6401C268 153.667 244.28 197.474 233.69 197.474C229.108 197.474 225.407 168.436 224.158 128.761C215.86 167.6 194.079 195.617 183.137 195.617C177.908 195.617 173.575 173.086 171.519 140.62C160.195 171.798 139.442 193.158 128.353 193.158C122.977 193.158 118.409 175.361 115.81 148.682C101.71 165.359 83.8207 175.93 73.1136 175.93C66.4602 175.93 60.8203 161.512 57.5597 139.817C44.1502 151.108 28.3172 158.083 18.5354 158.083C8.01929 158.083 0 129.581 0 94.9232C0 60.2658 9.03272 32.5833 18.5501 32.5833C28.0675 32.5833 44.532 39.7256 58.0444 51.2669C61.5253 30.643 67.224 17.2116 73.1136 17.2116C83.8501 17.2116 101.842 27.8497 115.957 44.6432C118.718 18.0814 123.447 0.602156 128.338 0.602156C139.471 0.602156 160.356 22.1627 171.651 53.5751C173.883 21.6943 178.407 0 183.122 0C194.123 0 216.066 28.2846 224.276 67.4247C225.715 29.1209 229.607 1.83992 233.69 1.83992C244.28 1.83992 268 45.6468 268 99.6735V99.6401Z" fill="url(#paint0_linear_2326_931)"/>
<defs>
<linearGradient id="paint0_linear_2326_931" x1="0.0146873" y1="98.7201" x2="268" y2="98.7201" gradientUnits="userSpaceOnUse">
<stop stop-color="#ECFEA5"/>
<stop offset="0.08" stop-color="#E6F7A6"/>
<stop offset="0.18" stop-color="#D5E6AB"/>
<stop offset="0.3" stop-color="#BACAB4"/>
<stop offset="0.43" stop-color="#94A2C0"/>
<stop offset="0.57" stop-color="#6370CF"/>
<stop offset="0.71" stop-color="#2833E1"/>
<stop offset="0.75" stop-color="#1721E7"/>
</linearGradient>
</defs>
</svg>
