<svg width="181" height="180" viewBox="0 0 181 180" fill="none" xmlns="http://www.w3.org/2000/svg">
<rect width="180.211" height="180" rx="15" fill="#FD8300"/>
<path d="M89.5 21C132.301 21 167 42.4115 167 51.9772C167 57.102 131.813 61 89.0119 61C46.2106 61 12 56.6135 12 51.9772C12 42.4115 46.6987 21 89.5 21Z" fill="#7D25E2"/>
<path d="M89.5 57C132.301 57 167 84.8337 167 97.2662C167 103.924 131.813 109 89.0119 109C46.2106 109 12 103.28 12 97.2662C12 84.8338 46.6987 57 89.5 57Z" fill="#7D25E2"/>
<path d="M90.0054 101C131.98 101 166 132.588 166 146.687C166 154.242 131.493 160 89.5191 160C47.5448 160 14 153.532 14 146.698C14 132.588 48.0311 101.011 89.9946 101.011L90.0054 101Z" fill="#7D25E2"/>
</svg>
