<svg width="181" height="180" viewBox="0 0 181 180" fill="none" xmlns="http://www.w3.org/2000/svg">
<rect width="180.211" height="180" rx="15" fill="#123117"/>
<path d="M89.4976 16C108.552 16 124 22.9618 124 26.0687C124 27.7351 108.335 29 89.2803 29C70.2255 29 55 27.5745 55 26.0687C55 22.9618 70.4476 16 89.5024 16L89.4976 16Z" fill="#D4FD00"/>
<path d="M90.5 81C120.047 81 144 96.5233 144 103.458C144 107.174 119.71 110 90.1631 110C60.6164 110 37 106.82 37 103.458C37 96.5233 60.9533 81 90.5 81Z" fill="#D4FD00"/>
<path d="M89.5 110C133.958 110 170 138.904 170 151.815C170 158.729 133.451 164 88.993 164C44.5349 164 9 158.06 9 151.815C9 138.904 45.0419 110 89.5 110Z" fill="#D4FD00"/>
</svg>
