<svg width="181" height="180" viewBox="0 0 181 180" fill="none" xmlns="http://www.w3.org/2000/svg">
<g clip-path="url(#clip0_2395_893)">
<path d="M0 15C0 6.71572 6.71573 0 15 0H165.211C173.495 0 180.211 6.71573 180.211 15V165C180.211 173.284 173.495 180 165.211 180H15C6.71574 180 0 173.284 0 165V15Z" fill="#D098F3"/>
<path d="M28.9999 89.55C28.9999 50.09 38.75 18.1 43.1 18.1C45.43 18.1 47.21 50.54 47.21 90C47.21 129.46 45.2099 161 43.0999 161C38.7499 161 28.9999 129.01 28.9999 89.55Z" fill="#123117"/>
<path d="M111 89.55C111 50.09 120.75 18.1 125.1 18.1C127.43 18.1 129.21 50.54 129.21 90C129.21 129.46 127.21 161 125.1 161C120.75 161 111 129.01 111 89.55Z" fill="#123117"/>
<path d="M131 89.55C131 50.09 140.75 18.1 145.1 18.1C147.43 18.1 149.21 50.54 149.21 90C149.21 129.46 147.21 161 145.1 161C140.75 161 131 129.01 131 89.55Z" fill="#123117"/>
<path d="M81.21 90C81.21 42.5044 99.9497 4.00001 108.31 4.00001C112.789 4.00001 116.21 43.046 116.21 90.5416C116.21 138.037 112.366 176 108.31 176C99.9497 176 81.21 137.496 81.21 90Z" fill="#123117"/>
<path d="M53.21 90C53.21 42.5044 71.9497 4.00001 80.3104 4.00001C84.7888 4.00001 88.21 43.046 88.21 90.5416C88.21 138.037 84.3659 176 80.3104 176C71.9497 176 53.21 137.496 53.21 90Z" fill="#123117"/>
</g>
<defs>
<clipPath id="clip0_2395_893">
<rect width="180.211" height="180" rx="15" fill="white"/>
</clipPath>
</defs>
</svg>
