<svg width="181" height="180" viewBox="0 0 181 180" fill="none" xmlns="http://www.w3.org/2000/svg">
<g clip-path="url(#clip0_2395_916)">
<rect width="180.211" height="180" rx="15" fill="#2A1C57"/>
<path d="M68.84 91.41C68.84 130.87 49.12 162.86 40.31 162.86C35.59 162.86 32 130.42 32 90.96C32 51.5 36.04 19.96 40.31 19.96C49.12 19.96 68.84 51.95 68.84 91.41Z" fill="#8375DB"/>
<path d="M107.62 90.22C107.62 129.68 93.75 161.67 87.56 161.67C84.24 161.67 81.72 129.23 81.72 89.77C81.72 50.31 84.56 18.78 87.56 18.78C93.75 18.78 107.62 50.77 107.62 90.23V90.22Z" fill="#8375DB"/>
<path d="M158.47 88.45C158.47 127.91 148.72 159.9 144.37 159.9C142.04 159.9 140.26 127.46 140.26 88C140.26 48.54 142.26 17 144.37 17C148.72 17 158.47 48.99 158.47 88.45Z" fill="#8375DB"/>
</g>
<defs>
<clipPath id="clip0_2395_916">
<rect width="180.211" height="180" fill="white"/>
</clipPath>
</defs>
</svg>
